<svg width="38" height="38" viewBox="0 0 38 38" fill="none" xmlns="http://www.w3.org/2000/svg">
<path d="M7.91667 15.8334C6.175 15.8334 4.75 17.2584 4.75 19C4.75 20.7417 6.175 22.1667 7.91667 22.1667C9.65833 22.1667 11.0833 20.7417 11.0833 19C11.0833 17.2584 9.65833 15.8334 7.91667 15.8334ZM30.0833 15.8334C28.3417 15.8334 26.9167 17.2584 26.9167 19C26.9167 20.7417 28.3417 22.1667 30.0833 22.1667C31.825 22.1667 33.25 20.7417 33.25 19C33.25 17.2584 31.825 15.8334 30.0833 15.8334ZM19 15.8334C17.2583 15.8334 15.8333 17.2584 15.8333 19C15.8333 20.7417 17.2583 22.1667 19 22.1667C20.7417 22.1667 22.1667 20.7417 22.1667 19C22.1667 17.2584 20.7417 15.8334 19 15.8334Z" stroke="#3A9E3E" stroke-width="1.5"/>
</svg>
