<svg width="20" height="20" viewBox="0 0 20 20" fill="none" xmlns="http://www.w3.org/2000/svg">
<g clip-path="url(#clip0_8_1029)">
<path d="M10.1 10.65C10.0336 10.6416 9.96637 10.6416 9.89997 10.65C9.19326 10.6262 8.52347 10.3286 8.03209 9.82016C7.54071 9.31167 7.26623 8.6321 7.26663 7.92499C7.26663 6.41665 8.4833 5.19165 9.99997 5.19165C10.7162 5.19041 11.4042 5.47066 11.9157 5.97199C12.4271 6.47332 12.7211 7.15556 12.7342 7.87164C12.7474 8.58772 12.4786 9.28028 11.9858 9.80001C11.493 10.3197 10.8157 10.625 10.1 10.65V10.65ZM15.6166 16.15C14.0852 17.5575 12.08 18.337 9.99997 18.3333C7.8333 18.3333 5.86663 17.5083 4.3833 16.15C4.46663 15.3667 4.96663 14.6 5.8583 14C8.14163 12.4833 11.875 12.4833 14.1416 14C15.0333 14.6 15.5333 15.3667 15.6166 16.15V16.15Z" stroke="black" stroke-width="1.5" stroke-linecap="round" stroke-linejoin="round"/>
<path d="M10.0001 18.3333C14.6026 18.3333 18.3334 14.6025 18.3334 9.99996C18.3334 5.39746 14.6026 1.66663 10.0001 1.66663C5.39758 1.66663 1.66675 5.39746 1.66675 9.99996C1.66675 14.6025 5.39758 18.3333 10.0001 18.3333Z" stroke="black" stroke-width="1.5" stroke-linecap="round" stroke-linejoin="round"/>
</g>
<defs>
<clipPath id="clip0_8_1029">
<rect width="20" height="20" fill="white"/>
</clipPath>
</defs>
</svg>
