<svg width="20" height="20" viewBox="0 0 20 20" fill="none" xmlns="http://www.w3.org/2000/svg">
<g clip-path="url(#clip0_12_2301)">
<path d="M18.3332 7.09999V3.31666C18.3332 2.14166 17.7998 1.66666 16.4748 1.66666H13.1082C11.7832 1.66666 11.2498 2.14166 11.2498 3.31666V7.09166C11.2498 8.27499 11.7832 8.74166 13.1082 8.74166H16.4748C17.7998 8.74999 18.3332 8.27499 18.3332 7.09999ZM18.3332 16.475V13.1083C18.3332 11.7833 17.7998 11.25 16.4748 11.25H13.1082C11.7832 11.25 11.2498 11.7833 11.2498 13.1083V16.475C11.2498 17.8 11.7832 18.3333 13.1082 18.3333H16.4748C17.7998 18.3333 18.3332 17.8 18.3332 16.475ZM8.74984 7.09999V3.31666C8.74984 2.14166 8.2165 1.66666 6.8915 1.66666H3.52484C2.19984 1.66666 1.6665 2.14166 1.6665 3.31666V7.09166C1.6665 8.27499 2.19984 8.74166 3.52484 8.74166H6.8915C8.2165 8.74999 8.74984 8.27499 8.74984 7.09999ZM8.74984 16.475V13.1083C8.74984 11.7833 8.2165 11.25 6.8915 11.25H3.52484C2.19984 11.25 1.6665 11.7833 1.6665 13.1083V16.475C1.6665 17.8 2.19984 18.3333 3.52484 18.3333H6.8915C8.2165 18.3333 8.74984 17.8 8.74984 16.475Z" stroke="black" stroke-width="1.5" stroke-linecap="round" stroke-linejoin="round"/>
</g>
<defs>
<clipPath id="clip0_12_2301">
<rect width="20" height="20" fill="white"/>
</clipPath>
</defs>
</svg>
