<svg width="18" height="18" viewBox="0 0 18 18" fill="none" xmlns="http://www.w3.org/2000/svg">
<path d="M12.75 13.8225H9.75L6.4125 16.0425C6.29986 16.1176 6.16896 16.1607 6.03375 16.1672C5.89854 16.1737 5.7641 16.1434 5.64476 16.0795C5.52543 16.0156 5.42568 15.9205 5.35616 15.8044C5.28663 15.6882 5.24994 15.5554 5.25 15.42V13.8225C3 13.8225 1.5 12.3225 1.5 10.0725V5.5725C1.5 3.3225 3 1.8225 5.25 1.8225H12.75C15 1.8225 16.5 3.3225 16.5 5.5725V10.0725C16.5 12.3225 15 13.8225 12.75 13.8225Z" stroke="black" stroke-width="1.5" stroke-miterlimit="10" stroke-linecap="round" stroke-linejoin="round"/>
<path d="M9 8.52V8.3625C9 7.8525 9.315 7.5825 9.63 7.365C9.9375 7.155 10.245 6.885 10.245 6.39C10.245 5.7 9.69 5.145 9 5.145C8.31 5.145 7.755 5.7 7.755 6.39M8.99625 10.3125H9.00375" stroke="black" stroke-width="1.5" stroke-linecap="round" stroke-linejoin="round"/>
</svg>
