<svg width="14" height="14" viewBox="0 0 14 14" fill="none" xmlns="http://www.w3.org/2000/svg">
<path d="M12.25 3.48835C10.3075 3.29585 8.35333 3.19669 6.405 3.19669C5.25 3.19669 4.095 3.25502 2.94 3.37169L1.75 3.48835M4.95833 2.89919L5.08667 2.13502C5.18 1.58085 5.25 1.16669 6.23583 1.16669H7.76417C8.75 1.16669 8.82583 1.60419 8.91333 2.14085L9.04167 2.89919M10.9958 5.33169L10.6167 11.2059C10.5525 12.1217 10.5 12.8334 8.8725 12.8334H5.1275C3.5 12.8334 3.4475 12.1217 3.38333 11.2059L3.00417 5.33169M6.02583 9.62502H7.96833M5.54167 7.29169H8.45833" stroke="white" stroke-width="1.5" stroke-linecap="round" stroke-linejoin="round"/>
</svg>
